<svg version="1.1" id="Layer_1" xmlns="http://www.w3.org/2000/svg" xmlns:xlink="http://www.w3.org/1999/xlink" x="0px" y="0px"
	 viewBox="0 0 155 138" style="enable-background:new 0 0 155 138; transform: scale(0.57); float: left; margin-left: -55px; margin-bottom: -75px; margin-top: -50px;" xml:space="preserve">
<style type="text/css">
	.st0{fill:#CCCCCC;}
</style>
<title>hands</title>
<g id="Layer_2_1_">
	<g>
		<defs>
			<polyline id="SVGID_1_" points="514.5,-5 434,-5 434,712 514.5,712 514.5,-5 			"/>
		</defs>
		<clipPath id="SVGID_2_">
			<use xlink:href="#SVGID_1_"  style="overflow:visible;"/>
		</clipPath>
	</g>
	<path id=“hand” d="M73.6,114.9c-0.3,1.3-1.1,2.4-2.3,3c-2.9,1.7-5.8,3.3-8.7,4.9c-0.6,0.2-0.9,0.8-0.9,1.4c0.1,1.1-0.2,2.2-0.8,3.1
		c-1.3,1.8-3.6,2.5-5.7,1.7c-0.2-0.1-0.4-0.1-0.6-0.2c-1.7-1.3-3.3-0.7-5-0.1c-1.9,0.7-3.7,1.4-5.6,2c-0.3,0.1-0.7,0.1-1,0.2
		c-0.7,0.1-1.1-0.2-1.6-0.8c-2-2.2-0.8-5,0.8-6.8c0.5-0.6,1.1-1.2,1.7-1.7c0.3-0.3,0.5-0.6,0-0.8c-1.1-0.6-2.2-1.2-3.3-1.7
		c-0.2-0.1-0.6,0.2-0.9,0.2c-1.5,0.5-3.1,0.8-4.5-0.1c-0.9-0.7-1.7-1.4-2.6-2.1c-1.3-1.2-2.8-2.2-4.5-2.8c-1.2-0.4-2.2-1.2-2.7-2.3
		c-0.3-0.5-0.6-0.9-1-1.3c-1.1-1.2-2.4-2.3-3.4-3.6c-1-1.4-1.8-2.8-2.6-4.3c-1.5-2.9-3.1-5.7-5-8.4c-0.8-1.1-0.6-2.6,0.5-3.4
		c0,0,0.1-0.1,0.1-0.1c0.7-0.4,1.5-0.8,2.3-1c0.5-0.1,0.5-0.3,0.2-0.6c-0.6-0.5-1.3-1-2-1.5c-2.3-1.5-4.7-3-7-4.5
		c-3.3-2.5-6-5.6-7.9-9.3C0,73.7-0.2,7,0,7c0,0.1,9,25,14,31s19.1,22.6,20.1,23.5s2.3,1.9,3.5,2.9c0.4,0.2,0.7,0.4,1.1,0.5
		c1.8,1,3.6,2.1,5.4,3.1c1.4,0.8,2.7,1.8,4.1,2.6s2.7,1.2,4,1.9c0.7,0.3,1.3,0.6,1.9,1c1,0.8,2.4,1,3.5,1.6c2.3,1,4.4,2.3,6.5,3.6
		c2.9,2,4.1,4.9,4.6,8.1c0.8,4.6,1.8,9.1,2.9,13.6c0.7,3,1.2,6,1.5,9.1c0.2,1.3,0.3,2.5,0.4,3.8C73.7,113.8,73.7,114.4,73.6,114.9z
		 M57.9,108.8c0,0.1,0,0.2,0,0.4c0.3,1.2,0.7,2.3,1,3.5c0.1,0.1,0.1,0.2,0.2,0.2c0.4-0.3,0.7-0.6,1-0.9c0.1-0.3,0.2-0.6,0.1-0.8
		c-0.4-1-0.8-2-1.2-3c-0.1-0.3-0.3-0.7-0.5-1c-0.1,0.3-0.3,0.7-0.4,1S58,108.5,57.9,108.8z"/>
	<path class="st0" d="M154.3,106.9l-96,0.8c-0.1,0.4-0.3,0.7-0.6,1c0.3,0.5,0.5,1.1,0.5,1.7c-0.1-1.2,0.2,0.6,0.3,1.1
		c0.2,0.9,0.5,1.9,0.8,2.8c0.6,2,1.2,3.9,1.6,5.9c0,0.2,0.1,0.3,0.1,0.5c0.2,0.2,0.3,0.5,0.3,0.8c0,0.2,0.1,0.5,0.1,0.7
		c0.3,0.5,0.4,1.1,0.4,1.7c0,0.7-0.2,1.4-0.4,2c-0.1,0.7-0.5,1.4-1,1.9c-0.4,0.4-0.8,0.7-1.2,1c-0.4,0.2-0.9,0.4-1.3,0.4l-0.3,0.1
		l0.1,9.1l96.9-0.8L154.3,106.9z"/>
	<path id=“letterform” d="M70.1,129.8h-1.8V128h-1.8l-0.1-9H70l0.1,7.2h1.8v1.8l7.2-0.1v1.8h-1.8v1.8l-7.2,0.1L70.1,129.8z M66.5,129.8h1.8v1.8h-1.8
		V129.8z M82.7,126.1h-1.8v-1.8h-1.8v-1.8h-1.8v-1.8h1.8v-1.8h-1.8v-1.8h-1.8l0.1,7.2h-1.8v1.8h-1.8l-0.1-7.2L70,119v-1.8h3.6v-1.8
		h1.8v-1.8H79v1.8h1.8v1.8h1.8v1.8h-1.8v1.8h1.8v1.8h1.8v1.8h-1.8L82.7,126.1z M79.1,126.1h1.8v1.8h-1.8V126.1z"/>
	<path id=“letterform” d="M87.8,129.6H86v-5.4h1.8v-1.8H86v-1.8h1.8v-1.8h1.8h3.6v1.8H95l0.1,7.2h1.8v1.8h-1.8v1.8h-1.8v-1.8h-3.6v1.8h-1.8
		L87.8,129.6z M89.5,122.4h1.8v-1.8h-1.8V122.4z M89.5,127.8h1.8v-3.6h-1.8V127.8z"/>
	<path id=“letterform” d="M102.9,131.3h-3.6v-1.8h-1.8v-1.8h1.8v-5.4l-0.1-10.8h1.8v1.8h1.8l0.1,14.4h1.8v1.8h-1.8L102.9,131.3z M102.7,111.5h1.8
		v1.8h-1.8L102.7,111.5z"/>
	<path id=“letterform” d="M110.7,131.2h-3.6v-1.8h-1.8v-1.8h1.8v-5.4l-0.1-10.8h1.8v1.8h1.8l0.1,14.4h1.8v1.8h-1.8L110.7,131.2z M110.5,111.5h1.8
		v1.8h-1.8L110.5,111.5z"/>
	<path id=“letterform” d="M117.5,127.6h1.8v1.8h1.8v1.8l-5.4,0.1v-1.8h-1.8v-3.6v-5.4h3.6v-1.8h3.6v1.8h1.8v1.8h-1.8v1.8h-1.8v-1.8h-1.8v1.8h1.8v1.8
		h-1.8L117.5,127.6z"/>
	<path id=“letterform” d="M129,131.1h-3.6v-1.8h-1.8v-1.8h1.8v-5.4h-1.8v-1.8h1.8v-1.8h3.6v1.8h1.8v-1.8h3.6v3.6h-1.8v3.6h1.8v1.8h-1.8v-1.8h-1.8
		v-3.6H129v5.4h1.8v1.8H129V131.1z"/>
	<path id=“letterform” d="M140.4,132.8h3.6v1.8h-1.8v1.8h-3.6v-1.8H135v-1.8h1.8V131h1.8v-1.8h-1.8l-0.1-7.2H135v-1.8h1.8v-1.8h3.6l0.1,9h1.8l-0.1-9
		h3.6l0.1,10.8h1.8v1.8h-1.8v1.8H144V131h-1.8v-1.8h-1.8L140.4,132.8z"/>
</g>
</svg>
