<?xml version="1.0" encoding="utf-8"?>
<!-- Generator: Adobe Illustrator 22.0.1, SVG Export Plug-In . SVG Version: 6.00 Build 0)  -->
<svg version="1.1" id="Layer_1" xmlns="http://www.w3.org/2000/svg" xmlns:xlink="http://www.w3.org/1999/xlink" x="0px" y="0px"
	 viewBox="0 0 155 138" style="enable-background:new 0 0 155 138;" xml:space="preserve">
<style type="text/css">
	.st0{fill:#CCCCCC;}
</style>
<title>hands</title>
<g id="Layer_2_1_">
	<path d="M73.6,114.9c-0.3,1.3-1.1,2.4-2.3,3c-2.9,1.7-5.8,3.3-8.7,4.9c-0.6,0.2-0.9,0.8-0.9,1.4c0.1,1.1-0.2,2.2-0.8,3.1
		c-1.3,1.8-3.6,2.5-5.7,1.7c-0.2-0.1-0.4-0.1-0.6-0.2c-1.7-1.3-3.3-0.7-5-0.1c-1.9,0.7-3.7,1.4-5.6,2c-0.3,0.1-0.7,0.1-1,0.2
		c-0.7,0.1-1.1-0.2-1.6-0.8c-2-2.2-0.8-5,0.8-6.8c0.5-0.6,1.1-1.2,1.7-1.7c0.3-0.3,0.5-0.6,0-0.8c-1.1-0.6-2.2-1.2-3.3-1.7
		c-0.2-0.1-0.6,0.2-0.9,0.2c-1.5,0.5-3.1,0.8-4.5-0.1c-0.9-0.7-1.7-1.4-2.6-2.1c-1.3-1.2-2.8-2.2-4.5-2.8c-1.2-0.4-2.2-1.2-2.7-2.3
		c-0.3-0.5-0.6-0.9-1-1.3c-1.1-1.2-2.4-2.3-3.4-3.6c-1-1.4-1.8-2.8-2.6-4.3c-1.5-2.9-3.1-5.7-5-8.4c-0.8-1.1-0.6-2.6,0.5-3.4
		c0,0,0.1-0.1,0.1-0.1c0.7-0.4,1.5-0.8,2.3-1c0.5-0.1,0.5-0.3,0.2-0.6c-0.6-0.5-1.3-1-2-1.5c-2.3-1.5-4.7-3-7-4.5
		c-3.3-2.5-6-5.6-7.9-9.3C0,73.7-0.2,7,0,7c0,0.1,9,25,14,31s19.1,22.6,20.1,23.5s2.3,1.9,3.5,2.9c0.4,0.2,0.7,0.4,1.1,0.5
		c1.8,1,3.6,2.1,5.4,3.1c1.4,0.8,2.7,1.8,4.1,2.6s2.7,1.2,4,1.9c0.7,0.3,1.3,0.6,1.9,1c1,0.8,2.4,1,3.5,1.6c2.3,1,4.4,2.3,6.5,3.6
		c2.9,2,4.1,4.9,4.6,8.1c0.8,4.6,1.8,9.1,2.9,13.6c0.7,3,1.2,6,1.5,9.1c0.2,1.3,0.3,2.5,0.4,3.8C73.7,113.8,73.7,114.4,73.6,114.9z
		 M57.9,108.8c0,0.1,0,0.2,0,0.4c0.3,1.2,0.7,2.3,1,3.5c0.1,0.1,0.1,0.2,0.2,0.2c0.4-0.3,0.7-0.6,1-0.9c0.1-0.3,0.2-0.6,0.1-0.8
		c-0.4-1-0.8-2-1.2-3c-0.1-0.3-0.3-0.7-0.5-1c-0.1,0.3-0.3,0.7-0.4,1S58,108.5,57.9,108.8z"/>
	<path class="st0" d="M154.3,106.9l-96,0.8c-0.1,0.4-0.3,0.7-0.6,1c0.3,0.5,0.5,1.1,0.5,1.7c-0.1-1.2,0.2,0.6,0.3,1.1
		c0.2,0.9,0.5,1.9,0.8,2.8c0.6,2,1.2,3.9,1.6,5.9c0,0.2,0.1,0.3,0.1,0.5c0.2,0.2,0.3,0.5,0.3,0.8c0,0.2,0.1,0.5,0.1,0.7
		c0.3,0.5,0.4,1.1,0.4,1.7c0,0.7-0.2,1.4-0.4,2c-0.1,0.7-0.5,1.4-1,1.9c-0.4,0.4-0.8,0.7-1.2,1c-0.4,0.2-0.9,0.4-1.3,0.4l-0.3,0.1
		l0.1,9.1l96.9-0.8L154.3,106.9z"/>
	<path d="M73.9,129.8h1.8v1.8H74L73.9,129.8z M79.3,129.8h-3.6V128h1.8v-1.8h1.8v-1.8h1.8v1.8h1.8v1.8h3.6v1.8h-1.8v1.8l-5.4,0.1
		L79.3,129.8z M88.3,127.9h-1.8v-1.8h1.8v-1.8l-7.2,0.1v-1.8h-1.8v-1.8h-1.8v-3.6h1.8v3.6h1.8v1.8h1.8v-1.8h1.8v1.8h3.6v-3.6h-1.8
		v1.8h-1.8v-3.6h-5.4v-1.8H81v-1.8l5.4-0.1v1.8l5.4-0.1l0.1,12.6h1.8v1.8h-1.8v1.8h-1.8v-1.8h-1.8L88.3,127.9z M91.8,113.4h1.8v1.8
		h-1.8V113.4z"/>
	<path d="M100.7,131.3h-3.6v-1.8h-1.8l-0.1-7.2l-0.1-10.8h1.8v1.8h1.8l0.1,7.2h1.8v-1.8h1.8v1.8h1.8l0.1,9h-3.6L100.7,131.3z
		 M98.7,111.6h1.8v1.8h-1.8V111.6z M98.8,127.8h1.8v-5.4h-1.8V127.8z"/>
	<path d="M112,131.2h-3.6v-1.8h-1.8v-3.6v-5.4h3.6v-1.8h3.6v1.8h1.8l0.1,9h-3.6L112,131.2z M110.2,127.7h1.8v-5.4h-1.8V127.7z"/>
	<path d="M124.3,131.1h-3.6v-1.8h-1.8l-0.1-7.2H117v-1.8h1.8v-1.8h3.6l0.1,9h1.8l-0.1-9h3.6l0.1,9h1.8v1.8h-1.8v1.8h-1.8v-1.8h-1.8
		L124.3,131.1z"/>
	<path d="M134.8,127.4h1.8v3.6h-3.6v-1.8h-1.8l-0.1-7.2h-1.8v-1.8h1.8l-0.1-5.4h1.8V113h1.8v5.4h3.6v1.8h-1.8v1.8h-1.8L134.8,127.4z
		"/>
</g>
</svg>
