<svg xmlns="http://www.w3.org/2000/svg" viewBox="0 0 155 140.25"><title>hands</title><g id="Layer_2" data-name="Layer 2"><rect x="58" y="0.25" width="97" height="30.93" style="fill:#ccc"/><path d="M108.64,30.52l-.2-.21-.36-.33H108l-.34-.16a2.23,2.23,0,0,0-1.68,0c-6.44-.11-8.71,5.58-12.18,9.7-1.3,1.59-2.53,3.22-3.93,4.67-1.73,1.8-2.71,4.24-5.24,5.36-3.43,1.53-6.71,3.38-10.08,5a8.5,8.5,0,0,1-2,.47c.54-4.37,1-8.5,1.58-12.88a4.19,4.19,0,0,1,0-.5c0-.91,0-1.82.05-2.73v-.16l0-.38a12.38,12.38,0,0,0-.2-1.36,3.63,3.63,0,0,1,0-1,11.56,11.56,0,0,1-.77-1.64,18.67,18.67,0,0,1-.61-2.22.83.83,0,0,1,0-.15c-.12-.23-.44-.86-.07-.28v-.05a5,5,0,0,1-.22-.47l-5-6.63-1.51-1.27.06-.07c-2.37-1.94-4.74-3.89-8-6.58-.79-1.33-4.35-4.28-5.51-4.12l-1,.71c-2.16,1.58-2.38,6.11-.39,8.52,2.38,2.88,5.35,5.34,6.53,9.12a26.8,26.8,0,0,0,1.79,3.56c-7-6.23-15.1-7.26-23-7.14-2.37,1.44-2.19,3.1-1.36,4.82s1.65,3.21,3.42,3.6l-5.74,3.32L32.24,39a6.26,6.26,0,0,1-1,.87,2.07,2.07,0,0,0-.91,3.27c1.31,1.93,3,3.2,5.48,2.76l-.14.48C28,48.21,22.8,53.73,16.76,58.59a59.41,59.41,0,0,0-7.35,4.13,10.35,10.35,0,0,0-3.07,4L6.09,67l-1,2.44L4.85,70a1.61,1.61,0,0,0-.17.51l-3.19,8,.05,0L.39,81.44,0,140.25c.12-.47,28.09-48.82,28.12-48.93.58-.77.94-1.26,1.32-1.74,1-1.35,1.84-3.16,3.22-3.94a40.44,40.44,0,0,1,8.81-3.74c5.24-1.51,10.6-2.6,15.92-3.87l7.75-1.85v-.09c2.37-.5,4.3-2.37,5.78-4.48L73,70.13h0l3.82-2.69.3-.15C80.41,65.19,83.74,63.16,87,61a34.48,34.48,0,0,0,6.17-4.69,75.85,75.85,0,0,0,5.74-7.73C101,45.72,103,42.85,105,40l.72-1a2,2,0,0,0,.65-.94h0l.16-.24-.06-.05,0,0c.3-.36.62-.7.88-1.06a6.82,6.82,0,0,0,1.11-2.4C109.3,33.05,109.83,31.85,108.64,30.52Z"/><path d="M68.16,23.08H70v1.8h-1.8Zm3.6,0H70v-1.8h-1.8v-9h3.6v7.2h1.8v1.8h7.2v1.8H79v1.8h-7.2Zm1.8-10.8h-1.8v-1.8h3.6V8.68h1.8V6.88h3.6v1.8h1.8v1.8h-1.8v1.8H79v-1.8h-1.8v7.2h-1.8v1.8h-1.8Zm7.2,7.2h1.8v1.8h-1.8Z"/><path d="M89.76,24.88h-3.6v-1.8h-1.8v-9H88v-1.8h3.6v1.8h1.8v9h-3.6ZM88,21.28h1.8v-5.4H88Z"/><path d="M99.71,24.88h-3.6v-1.8h-1.8v-1.8h1.8v-5.4h-1.8v-1.8h1.8v-1.8h3.6v1.8h1.8v-1.8h3.6v1.8h1.8v1.8h-1.8v5.4h1.8v1.8h-1.8v1.8h-3.6v-1.8h-1.8Zm0-3.6h1.8v-5.4h-1.8Z"/><path d="M112.42,21.28h1.8v3.6h-3.6v-1.8h-1.8v-7.2H107v-1.8h1.8V8.68h1.8V6.88h1.8v5.4H116v1.8h-1.8v1.8h-1.8Z"/><path d="M118.76,23.08H117v-5.4h1.8v-1.8H117v-1.8h1.8v-1.8h5.4v1.8H126v7.2h1.8v1.8H126v1.8h-1.8v-1.8h-3.6v1.8h-1.8Zm1.8-7.2h1.8v-1.8h-1.8Zm0,5.4h1.8v-3.6h-1.8Z"/><path d="M132.31,21.28h1.8v1.8h1.8v1.8h-5.4v-1.8h-1.8v-9h3.6V12.29h3.6v1.79h1.8v1.8h-1.8v3.6h1.8v1.8h-1.8v-1.8h-1.8v-3.6h-1.8Z"/><path d="M143.2,21.29H145v3.59h-3.6v-1.8h-1.8v-7.2h-1.8v-1.8h1.8V8.69h1.8V6.89h1.8v5.4h3.6v1.8H145v1.8h-1.8Z"/></g></svg>