<svg xmlns="http://www.w3.org/2000/svg" viewBox="0 0 97.17 31.15"><title>navbuttons</title><g id="Layer_2" data-name="Layer 2"><rect x="0.17" y="0.14" width="97" height="31" style="fill:#ccc"/><path d="M16.11,22.9h1.8l0,1.8h-1.8Zm5.4,0-3.6,0v-1.8l1.8,0,0-1.79,1.8,0,0-1.8,1.8,0,0,1.8h1.8V21l3.6,0,0,1.8h-1.8v1.8l-5.39.05Zm9-1.88-1.8,0V19.2l1.8,0,0-1.8-7.2.06v-1.8l-1.8,0,0-1.8-1.8,0,0-3.6,1.8,0,0,3.6h1.8l0,1.79h1.8l0-1.8,1.8,0,0,1.8,3.6,0,0-3.6-1.8,0v1.8h-1.8l0-3.59-5.4,0V8.46h1.8l0-1.8,5.4-.05,0,1.8,5.4,0L34.09,21h1.8l0,1.8h-1.8v1.8l-1.8,0v-1.8h-1.8ZM34,6.55h1.8l0,1.8-1.8,0Z"/><path d="M42.82,24.48l-3.6,0,0-1.8H37.41l-.07-7.19-.09-10.8,1.8,0,0,1.8h1.8l.06,7.2,1.8,0,0-1.8h1.8l0,1.79h1.8l.07,9-3.6,0Zm-2-19.78,1.8,0,0,1.8-1.8,0ZM41,20.89h1.8l0-5.4h-1.8Z"/><path d="M54.16,24.38l-3.6,0,0-1.8-1.8,0,0-3.6,0-5.4,3.6,0,0-1.8,3.6,0,0,1.8,1.8,0,.07,9-3.6,0ZM52.33,20.8l1.8,0-.05-5.4-1.8,0Z"/><path d="M66.45,24.28l-3.6,0v-1.8H61L61,15.33h-1.8l0-1.8H61v-1.8l3.59,0,.08,9h1.8l-.08-9,3.6,0,.08,9,1.8,0v1.8l-1.79,0v1.8h-1.8v-1.8l-1.8,0Z"/><path d="M76.91,20.59l1.8,0,0,3.6-3.6,0V22.4l-1.8,0-.06-7.2-1.8,0,0-1.8,1.8,0,0-5.4H75l0-1.8,1.8,0,0,5.4,3.6,0v1.8l-1.8,0,0,1.8h-1.8Z"/></g></svg>