<svg xmlns="http://www.w3.org/2000/svg" viewBox="0 0 139 57.05"><title>navbuttons</title><g id="Layer_2" data-name="Layer 2"><path d="M47.52,17.37a3,3,0,0,1,.84,1.11,2.9,2.9,0,0,1-.63,3.1,6.17,6.17,0,0,1-4,1.75A3.2,3.2,0,0,1,42,23V47.75a2.18,2.18,0,0,1,.23-.09l.13,0a3.86,3.86,0,0,1,.57-.12c1.7-.21,3.79-.36,5.16.85H139v-31Z" style="fill:#ccc"/><path d="M52.54,40.2h1.8V42h-1.8Zm3.6,0h-1.8V38.4h-1.8v-9h3.6v7.2h1.8v1.8h7.2v1.8h-1.8V42h-7.2Zm12.6-3.6h-1.8V34.8h-1.8V33h-1.8V31.2h1.8V29.4h-1.8V27.6h-1.8v7.2h-1.8v1.8h-1.8V29.4h-1.8V27.6h3.6V25.8h1.79V24h3.6v1.8h1.8v1.8h1.8v1.8h-1.8v1.8h1.8V33h1.8v1.8h-1.8Zm-3.6,0h1.8v1.8h-1.8Z"/><path d="M73.3,40.2H71.5V34.8h1.8V33H71.5V31.2h1.8V29.4h5.4v1.8h1.8v7.2h1.8v1.8H80.5V42H78.7V40.2H75.1V42H73.3ZM75.1,33h1.8V31.2H75.1Zm0,5.4h1.8V34.8H75.1Z"/><path d="M87.81,42h-3.6V40.2h-1.8V38.4h1.8V22.2H86V24h1.8V38.4h1.8v1.8h-1.8Zm0-19.8h1.8V24h-1.8Z"/><path d="M95.1,42H91.5V40.2H89.7V38.4h1.8V22.2h1.8V24h1.8V38.4h1.8v1.8H95.1Zm0-19.8h1.8V24H95.1Z"/><path d="M101.44,38.4h1.8v1.8H105V42H99.63V40.2h-1.8v-9h3.6V29.4H105v1.8h1.8V33H105v1.8h-1.8V33h-1.8v1.8h1.8v1.8h-1.8Z"/><path d="M112.33,42h-3.6V40.2h-1.8V38.4h1.8V33h-1.8V31.2h1.8V29.4h3.6v1.8h1.8V29.4h3.6V33h-1.8V36.6h1.8v1.8h-1.8V36.6h-1.8V33h-1.8v5.4h1.8v1.8h-1.8Z"/><path d="M123.21,43.81h3.6V45.6H125v1.8h-3.59V45.6h-3.6V43.8h1.8V42h1.8V40.2h-1.8V33h-1.8v-1.8h1.8v-1.8h3.6v9H125v-9h3.6v10.8h1.8V42h-1.8v1.8h-1.8V42H125v-1.8h-1.8Z"/><g id="_7EGimP" data-name="7EGimP"><path d="M.25.32A17.42,17.42,0,0,0,6.92,2.19a49.59,49.59,0,0,1,17.49,4c7.43,3,14.83,7.38,22.26,10.36C48,17.09,50,18.37,50,19.37s-2.38,3.56-4,4.1c-6.37,2.1-12.15-2.63-18.23-3.92a2.83,2.83,0,0,0-2.25.41c-1.24,1.34,1,16.67,1.44,17.4,1.73,3.25,4.14,4.06,7.67,3,2.35-.7,5.58,1.92,5.25,3.81a4.36,4.36,0,0,1-.55,1.1c.51-.23,2.68-.91,2.68-.91v3A22.21,22.21,0,0,1,45.13,47c2.95.34,4.66,2.21,4,4.63a1,1,0,0,1-.64.64c-1.86.31-4.26-.08-5.5.95-2.78,2.3-5.9,2.18-9,2.33-2.85.13-6.33.91-8.44-.38-4.4-2.7-8-6.62-12.07-10-2.21-1.84-5.07-3.14-6.73-5.37C4.3,36.52,2.51,32.68.34,29.11Z"/></g></g></svg>