<svg xmlns="http://www.w3.org/2000/svg" viewBox="0 0 96.86 31.08"><title>navbuttons</title><g id="Layer_2" data-name="Layer 2"><rect x="-0.14" y="0.09" width="97" height="31" style="fill:#ccc"/><path d="M14.56,22.81H12.7V21H10.85V11.66h3.71v7.43h1.86V21h7.44v1.86H22v1.86H14.56Zm-3.71,0H12.7v1.86H10.85Zm5.57-11.15H14.56V9.8h3.72V7.94h1.86V6.08h3.72V7.94h1.85V9.8H23.86v1.86H22V9.8H20.14v7.43H18.28v1.86H16.42Zm7.44,7.43h1.85V21H23.86Z"/><path d="M33,24.67H29.24V22.81H27.38v-9.3H31.1V11.66h3.71v1.85h1.86v9.3H33ZM31.1,21H33V15.37H31.1Z"/><path d="M43,24.67H39.32V22.81H37.46V21h1.86V15.37H37.46V13.51h1.86V11.66H43v1.85H44.9V11.66h3.71v1.85h1.86v1.86H48.61V21h1.86v1.86H48.61v1.86H44.9V22.81H43ZM43,21H44.9V15.37H43Z"/><path d="M56,21h1.86v3.72H54.11V22.81H52.25V15.37H50.39V13.51h1.86V7.94h1.86V6.08H56v5.58h3.71v1.85H57.83v1.86H56Z"/><path d="M62.32,22.81H60.46V17.23h1.86V15.37H60.46V13.51h1.86V11.66h5.57v1.85h1.86V21h1.86v1.86H69.75v1.86H67.89V22.81H64.17v1.86H62.32Zm1.85-7.44H66V13.51H64.17Zm0,5.58H66V17.23H64.17Z"/><path d="M76.12,21H78v1.86h1.86v1.86H74.26V22.81H72.4v-9.3h3.72V11.66h3.71v1.85h1.86v1.86H79.83v3.72h1.86V21H79.83V19.09H78V15.37H76.12Z"/><path d="M87.17,21H89v3.72H85.31V22.81H83.45V15.37H81.59V13.51h1.86V7.94h1.86V6.08h1.86v5.58h3.71v1.85H89v1.86H87.17Z"/></g></svg>