<svg xmlns="http://www.w3.org/2000/svg" viewBox="0 0 96.85 31.22"><title>navbuttons</title><g id="Layer_2" data-name="Layer 2"><rect x="-0.15" y="0.28" width="97" height="31" style="fill:#ccc"/><path d="M21.91,23H20.05V21.14H18.19V10h1.86V8.13h1.86V6.28H31.2V8.13H29.34V10H25.63v3.72h1.85V11.85H31.2v1.86h1.86v1.86h1.86v5.57H33.06V23H31.2V17.43H29.34V15.57H25.63v9.29H21.91Zm-3.72,0h1.86v1.86H18.19Zm3.72-3.71h1.86V10H21.91Zm5.57,5.57h1.86v3.72H31.2v1.86H29.34V28.58H27.48ZM29.34,23H31.2v1.86H29.34Zm1.86,3.72h1.86v1.86H31.2Z"/><path d="M42.31,24.86H38.59V23H36.74V13.71h3.71V11.85h3.72v1.86H46V23H42.31Zm-1.86-3.72h1.86V15.57H40.45Z"/><path d="M52.39,24.86H48.68V23H46.82V21.14h1.86V15.57H46.82V13.71h1.86V11.85h3.71v1.86h1.86V11.85H58v1.86h1.86V11.85h3.72v1.86H65.4v1.86H63.55v5.57H65.4V23H63.55v1.86H59.83V23H58v1.86H54.25V23H52.39Zm0-3.72h1.86V15.57H52.39Zm5.58,0h1.86V15.57H58Z"/><path d="M69.93,21.14h1.86V23h1.86v1.86H68.08V23H66.22V13.71h3.71V11.85h3.72v1.86h1.86v1.86H73.65v1.86H71.79V15.57H69.93v1.86h1.86v1.86H69.93Z"/></g></svg>