<svg xmlns="http://www.w3.org/2000/svg" viewBox="0 0 96.81 31.24"><title>navbuttons</title><g id="Layer_2" data-name="Layer 2"><rect x="-0.19" y="-0.03" width="97" height="31" style="fill:#ccc"/><path d="M10.36,22.8h1.8v1.8h-1.8Zm3.6,0h-1.8V21h-1.8V12H14v7.2h1.8V21H23v1.8h-1.8v1.8H14Zm12.59-3.6h-1.8V17.4H23V15.6h-1.8V13.8H23V12h-1.8V10.2h-1.8v7.2H17.56v1.8h-1.8V12H14V10.2h3.6V8.4h1.8V6.6H23V8.4h1.8v1.8h1.8V12h-1.8v1.8h1.8v1.8h1.8v1.8h-1.8Zm-3.6,0h1.8V21H23Z"/><path d="M31.11,22.8h-1.8V17.4h1.8V15.6h-1.8V13.8h1.8V12h5.4v1.8h1.8V21h1.8v1.8h-1.8v1.8h-1.8V22.8h-3.6v1.8h-1.8Zm1.8-7.2h1.8V13.8h-1.8Zm0,5.4h1.8V17.4h-1.8Z"/><path d="M45.62,24.6H42V22.8h-1.8V21H42V4.8h1.8V6.6h1.8V21h1.8v1.8h-1.8Zm0-19.8h1.8V6.6h-1.8Z"/><path d="M52.91,24.6h-3.6V22.8h-1.8V21h1.8V4.8h1.8V6.6h1.8V21h1.8v1.8h-1.8Zm0-19.8h1.8V6.6h-1.8Z"/><path d="M59.25,21h1.8v1.8h1.8v1.8h-5.4V22.8h-1.8v-9h3.6V12h3.6v1.8h1.8v1.8h-1.8v1.8h-1.8V15.6h-1.8v1.8h1.8v1.8h-1.8Z"/><path d="M70.14,24.6h-3.6V22.8h-1.8V21h1.8V15.6h-1.8V13.8h1.8V12h3.6v1.8h1.8V12h3.6v3.6h-1.8v3.6h1.8V21h-1.8V19.2h-1.8V15.6h-1.8V21h1.8v1.8h-1.8Z"/><path d="M81,26.4h3.6v1.8h-1.8V30h-3.6V28.2h-3.6V26.4h1.8V24.6h1.8V22.8h-1.8V15.6h-1.8V13.8h1.8V12H81v9h1.8V12h3.6V22.8h1.8v1.8H86.43v1.8h-1.8V24.6h-1.8V22.8H81Z"/></g></svg>