<svg xmlns="http://www.w3.org/2000/svg" viewBox="0 0 139 93.31"><title>navbuttons</title><g id="Layer_2" data-name="Layer 2"><path d="M42,.09v19.8c3.12,2.28,4.89,5.63,7.21,8.65.62.81,1.26,1.66,1.85,2.55H72.69a2.59,2.59,0,0,1,.14-.29c1.07-1.73,2.83-2.3,4.74-2.51a2.84,2.84,0,0,1,2.06.85,2.89,2.89,0,0,1,.83,1.95H139V.09Z" style="fill:#ccc"/><path d="M.32,93.55C7.62,84,14,77.4,14,77.34c.46-.61.75-1,1.06-1.4.85-1.08,3.49-2.54,4.59-3.17a33.36,33.36,0,0,1,7.1-3c4.22-1.21,8.53-2.09,12.81-3.11l6.24-1.49v-.07a8.14,8.14,0,0,0,4.65-3.61l1.68-1.19h0l3.07-2.16a1.51,1.51,0,0,0,.24-.13c2.65-1.67,5.33-3.31,7.94-5.05a27.72,27.72,0,0,0,5-3.78A61.85,61.85,0,0,0,73,42.94c1.65-2.3,3.29-4.61,4.93-6.91l.58-.83a1.69,1.69,0,0,0,.52-.75h0l.13-.2-.05,0,0,0c.24-.29.5-.56.71-.86a5.42,5.42,0,0,0,.89-1.92c.64-.94,1.07-1.91.12-3l-.17-.18L80.38,28h-.06l-.27-.13a1.84,1.84,0,0,0-1.36,0c-5.18-.08-7,4.49-9.8,7.81-1,1.28-2,2.59-3.17,3.76-1.39,1.45-2.18,3.41-4.21,4.32-2.76,1.22-5.4,2.71-8.12,4a7,7,0,0,1-1.63.38c.43-3.52.84-6.84,1.27-10.37,0-.13,0-.27,0-.4,0-.73,0-1.47,0-2.2V35c0-.1,0-.2,0-.3a10.07,10.07,0,0,0-.17-1.1,3,3,0,0,1,0-.79,8.78,8.78,0,0,1-.62-1.32,15.62,15.62,0,0,1-.49-1.78l0-.13c-.1-.18-.36-.69-.06-.22v0c-.06-.13-.12-.25-.17-.38l-4-5.34-1.22-1,0-.06-6.47-5.29c-.64-1.07-3.5-3.45-4.44-3.32l-.79.57c-1.74,1.27-1.91,4.93-.32,6.86,1.93,2.32,4.32,4.3,5.27,7.34a21,21,0,0,0,1.43,2.87c-5.66-5-12.15-5.84-18.5-5.75-1.91,1.16-1.76,2.5-1.1,3.88s1.33,2.59,2.76,2.9l-4.62,2.67-.12-.06a4.77,4.77,0,0,1-.82.7,1.66,1.66,0,0,0-.74,2.63c1.06,1.56,2.39,2.58,4.42,2.22l-.12.39c-6.14,1.5-10.33,5.94-15.2,9.85A48.94,48.94,0,0,0,1,54.33a5.35,5.35,0,0,0-.63.53Z"/><path d="M56.7,22.81H54.84V21H53V11.66H56.7v7.43h1.86V21H66v1.86H64.13v1.86H56.7Zm-3.72,0h1.86v1.86H53Zm5.58-11.15H56.7V9.8h3.72V7.94h1.85V6.08H66V7.94h1.86V9.8H66v1.86H64.13V9.8H62.27v7.43H60.42v1.86H58.56ZM66,19.09h1.86V21H66Z"/><path d="M75.09,24.67H71.37V22.81H69.51v-9.3h3.72V11.66H77v1.85h1.86v9.3H75.09ZM73.23,21h1.86V15.37H73.23Z"/><path d="M85.17,24.67H81.46V22.81H79.6V21h1.86V15.37H79.6V13.51h1.86V11.66h3.71v1.85H87V11.66h3.72v1.85h1.86v1.86H90.75V21h1.86v1.86H90.75v1.86H87V22.81H85.17Zm0-3.72H87V15.37H85.17Z"/><path d="M98.1,21H100v3.72H96.24V22.81H94.39V15.37H92.53V13.51h1.86V7.94h1.85V6.08H98.1v5.58h3.72v1.85H100v1.86H98.1Z"/><path d="M104.45,22.81h-1.86V17.23h1.86V15.37h-1.86V13.51h1.86V11.66H110v1.85h1.85V21h1.86v1.86h-1.86v1.86H110V22.81h-3.72v1.86h-1.86Zm1.86-7.44h1.86V13.51h-1.86Zm0,5.58h1.86V17.23h-1.86Z"/><path d="M118.25,21h1.86v1.86H122v1.86h-5.58V22.81h-1.86v-9.3h3.72V11.66H122v1.85h1.86v1.86H122v3.72h1.86V21H122V19.09h-1.86V15.37h-1.86Z"/><path d="M129.3,21h1.86v3.72h-3.72V22.81h-1.86V15.37h-1.85V13.51h1.85V7.94h1.86V6.08h1.86v5.58H133v1.85h-1.86v1.86H129.3Z"/></g></svg>