<svg xmlns="http://www.w3.org/2000/svg" viewBox="0 0 139 48.19"><title>navbuttons</title><g id="Layer_2" data-name="Layer 2"><path d="M42,.14V5.62c.27.26.53.53.82.8a21.14,21.14,0,0,0,4.59,3c3.22,1.76,5.58,5.4,9.05,6.52,2.88.93,1.64,5.49-1.25,4.55a15.13,15.13,0,0,1-5.44-3.54,2.33,2.33,0,0,1-1,.25,9.64,9.64,0,0,0-4.13,1.17c0,.45,0,.89,0,1.33a2.53,2.53,0,0,1,.21.9c.08,2.21.88,4.25,1.15,6.42.13,1,.14,2,.19,2.94.1.4.19.8.3,1.2H139V.14Z" style="fill:#ccc"/><path d="M57.94,22.9h1.8l0,1.8H58Zm5.4,0-3.6,0v-1.8l1.8,0,0-1.79,1.8,0v-1.8l1.8,0v1.8h1.8l0,1.8,3.6,0v1.8h-1.8l0,1.8-5.4.05Zm9-1.88-1.8,0,0-1.8,1.8,0v-1.8l-7.2.06,0-1.8-1.8,0v-1.8l-1.8,0,0-3.6,1.8,0,0,3.6h1.8v1.79h1.8v-1.8l1.8,0v1.8l3.6,0,0-3.6-1.8,0,0,1.8h-1.8l0-3.59-5.4,0,0-1.8H65l0-1.8,5.4-.05,0,1.8,5.4,0L75.93,21h1.8v1.8h-1.8l0,1.8-1.8,0,0-1.8h-1.8ZM75.8,6.55h1.8l0,1.8-1.8,0Z"/><path d="M84.65,24.48l-3.6,0v-1.8h-1.8l-.06-7.19-.1-10.8,1.8,0,0,1.8h1.8l.06,7.2,1.8,0,0-1.8h1.8l0,1.79h1.8l.08,9-3.6,0Zm-2-19.78,1.8,0,0,1.8-1.8,0Zm.14,16.19h1.8l0-5.4h-1.8Z"/><path d="M96,24.38l-3.6,0v-1.8l-1.8,0,0-3.6,0-5.4,3.6,0,0-1.8,3.6,0,0,1.8,1.8,0,.08,9-3.6,0ZM94.16,20.8l1.8,0,0-5.4-1.8,0Z"/><path d="M108.28,24.28l-3.6,0v-1.8h-1.8l-.06-7.19H101l0-1.8h1.8v-1.8l3.6,0,.07,9h1.8l-.07-9,3.6,0,.07,9,1.8,0,0,1.8-1.8,0v1.8h-1.8v-1.8l-1.8,0Z"/><path d="M118.75,20.59l1.8,0,0,3.6-3.6,0,0-1.8-1.8,0-.06-7.2-1.8,0v-1.8l1.8,0L115,8h1.8l0-1.8,1.8,0,0,5.4,3.6,0,0,1.8-1.8,0v1.8h-1.8Z"/><g id="LbxLnt"><path d="M.3,14.38,4.47,10.5c3.09-2.87,6-5.95,9.09-8.79S20.68-.07,24.44.24c1.39.12,2.78.16,4.18.16a4.69,4.69,0,0,0,1.06,0h.83l.78.16.51.1.18.1a15.24,15.24,0,0,0,4.87,1.36,19,19,0,0,1,2.91.61c4,3.67,8.63,6.53,13,9.68a37.68,37.68,0,0,0,6.45,4.83A1.45,1.45,0,0,1,59,19.13c-1.33,1.39-3.08,2.18-5.06,1.27a21.91,21.91,0,0,1-3.45-2c-2-1.41-3.78.22-5.67.3a.92.92,0,0,0,0,.31c.93,3.5,1.81,7,2.81,10.5.41,1.43,1.16,2.77,1.55,4.21A2.84,2.84,0,0,1,49,36a3.06,3.06,0,0,1-3.93.82,19.59,19.59,0,0,1-2.61-2.07,1,1,0,0,0-.17-.12,1.38,1.38,0,0,0-.08.27,42.83,42.83,0,0,0-.24,5.41,2.48,2.48,0,0,1-2.13,2.93c-.93.16-2-.54-3-.8a1.89,1.89,0,0,0-.81.16,7.71,7.71,0,0,1-2.6.63c-1.7-.2-2.83-2.46-2.5-4.13a32.21,32.21,0,0,0,.61-5.62c0-.44-1.05-.87-1.61-1.33-1.62-1.32-3.19-.52-4.8.07-.57.21-1.27.06-1.82.29-.35.15-.46.83-.81,1.06C17.34,36.92,12,39.93,7.18,43.67A47,47,0,0,1,.35,47.93Z"/></g></g></svg>