<svg xmlns="http://www.w3.org/2000/svg" viewBox="0 0 138.7 83.81"><title>navbuttons</title><g id="Layer_2" data-name="Layer 2"><path d="M0,.16A74.52,74.52,0,0,1,5.7,5.88c4.13,5,16.38,12.79,17.18,13.55a35.67,35.67,0,0,0,2.85,2.36,7.08,7.08,0,0,0,.93.41c1.5.85,3,1.7,4.46,2.58,1.16.69,2.25,1.49,3.42,2.15s2.2,1,3.29,1.54a8,8,0,0,1,1.58.86,13.48,13.48,0,0,0,2.91,1.28,40.62,40.62,0,0,1,5.39,3,9.46,9.46,0,0,1,3.81,6.7c.62,3.78,1.45,7.5,2.42,11.21.63,2.44.86,5,1.25,7.47.16,1,.27,2.1.37,3.16a13.71,13.71,0,0,1,0,1.43,3.59,3.59,0,0,1-1.88,2.48c-2.36,1.4-4.76,2.74-7.16,4a1.13,1.13,0,0,0-.71,1.2,3.78,3.78,0,0,1-.67,2.53,3.93,3.93,0,0,1-4.68,1.39A1.46,1.46,0,0,1,40,75c-1.37-1.07-2.75-.56-4.13,0-1.53.58-3.07,1.13-4.61,1.68a7.53,7.53,0,0,1-.85.15c-.59.11-.89-.18-1.3-.62-1.7-1.82-.68-4.12.64-5.59a19.16,19.16,0,0,1,1.44-1.41c.27-.25.39-.48,0-.68-.91-.49-1.82-1-2.76-1.4-.17-.08-.48.12-.72.21A4,4,0,0,1,24,67.21a23.19,23.19,0,0,1-2.11-1.74,10.7,10.7,0,0,0-3.68-2.34,3.63,3.63,0,0,1-2.22-2,4.71,4.71,0,0,0-.8-1.09c-.93-1-2-1.92-2.81-3a25.11,25.11,0,0,1-2.13-3.57,58.51,58.51,0,0,0-4.15-6.93,2,2,0,0,1,.57-2.9,8.09,8.09,0,0,1,1.92-.79c.37-.12.4-.26.15-.46C8.16,42,7.6,41.59,7,41.21,5.11,40,3.17,38.76,1.28,37.48,1,37.28.53,37,0,36.63Zm42.56,58.3a.76.76,0,0,0,0,.31c.27,1,.56,1.93.86,2.89a.38.38,0,0,0,.18.18,5,5,0,0,0,.85-.74.89.89,0,0,0,0-.7c-.31-.83-.66-1.64-1-2.46-.12-.27-.26-.54-.39-.81-.12.27-.24.54-.35.81S42.59,58.26,42.52,58.46Z"/><path d="M41.7,52.88v1.81a134.72,134.72,0,0,0,3.5,14.46c.49,1.83.44,3.66-.48,4.84a2.11,2.11,0,0,1-.76.81,2.84,2.84,0,0,1-1.63.65l-.16,0h0l-.26,0H41.7v8.39h97v-31Z" style="fill:#ccc"/><path d="M63.76,75.59H61.9V73.73H60V62.58H61.9V60.72h1.86V58.87h9.29v1.85H71.19v1.86H67.47V66.3h1.86V64.44h3.72V66.3h1.86v1.86h1.85v5.57H74.91v1.86H73.05V70H71.19V68.16H67.47v9.29H63.76Zm-3.72,0H61.9v1.86H60Zm3.72-3.71h1.85v-9.3H63.76Zm5.57,5.57h1.86v3.72h1.86V83H71.19V81.17H69.33Zm1.86-1.86h1.86v1.86H71.19Zm1.86,3.72h1.86v1.86H73.05Z"/><path d="M84.16,77.45H80.44V75.59H78.58V66.3H82.3V64.44H86V66.3h1.85v9.29H84.16ZM82.3,73.73h1.86V68.16H82.3Z"/><path d="M94.24,77.45H90.52V75.59H88.67V73.73h1.85V68.16H88.67V66.3h1.85V64.44h3.72V66.3H96.1V64.44h3.72V66.3h1.86V64.44h3.71V66.3h1.86v1.86h-1.86v5.57h1.86v1.86h-1.86v1.86h-3.71V75.59H99.82v1.86H96.1V75.59H94.24Zm0-3.72H96.1V68.16H94.24Zm5.58,0h1.86V68.16H99.82Z"/><path d="M111.78,73.73h1.86v1.86h1.86v1.86h-5.58V75.59h-1.86V66.3h3.72V64.44h3.72V66.3h1.86v1.86H115.5V70h-1.86V68.16h-1.86V70h1.86v1.86h-1.86Z"/></g></svg>