<?xml version="1.0" encoding="utf-8"?>
<!-- Generator: Adobe Illustrator 22.0.1, SVG Export Plug-In . SVG Version: 6.00 Build 0)  -->
<svg version="1.1" id="Layer_1" xmlns="http://www.w3.org/2000/svg" xmlns:xlink="http://www.w3.org/1999/xlink" x="0px" y="0px"
	 viewBox="0 0 147 55" style="enable-background:new 0 0 147 55;" xml:space="preserve">
<style type="text/css">
	.st0{fill:#FFFFFF;}
</style>
<title>wireframes</title>
<g id="Layer_2_1_">
	<path class="st0" d="M12.7,36.6h-3v-3h-3v-15h6v12h3v3h12v3h-3v3h-12V36.6z M6.7,36.6h3v3h-3V36.6z M33.7,30.6h-3v-3h-3v-3h-3v-3h3
		v-3h-3v-3h-3v12h-3v3h-3v-12h-3v-3h6v-3h3v-3h6v3h3v3h3v3h-3v3h3v3h3v3h-3V30.6z M27.7,30.6h3v3h-3V30.6z"/>
	<path class="st0" d="M42,36.6h-3v-9h3v-3h-3v-3h3v-3h9v3h3v12h3v3h-3v3h-3v-3h-6v3h-3V36.6z M45,24.6h3v-3h-3V24.6z M45,33.6h3v-6
		h-3V33.6z"/>
	<path class="st0" d="M66.9,39.6h-6v-3h-3v-3h3v-27h3v3h3v24h3v3h-3V39.6z M66.9,6.6h3v3h-3V6.6z"/>
	<path class="st0" d="M79.8,39.6h-6v-3h-3v-3h3v-27h3v3h3v24h3v3h-3V39.6z M79.8,6.6h3v3h-3V6.6z"/>
	<path class="st0" d="M91,33.6h3v3h3v3h-9v-3h-3v-15h6v-3h6v3h3v3h-3v3h-3v-3h-3v3h3v3h-3V33.6z"/>
	<path class="st0" d="M109.9,39.6h-6v-3h-3v-3h3v-9h-3v-3h3v-3h6v3h3v-3h6v6h-3v6h3v3h-3v-3h-3v-6h-3v9h3v3h-3V39.6z"/>
	<path class="st0" d="M128.8,42.6h6v3h-3v3h-6v-3h-6v-3h3v-3h3v-3h-3v-12h-3v-3h3v-3h6v15h3v-15h6v18h3v3h-3v3h-3v-3h-3v-3h-3V42.6z
		"/>
</g>
</svg>
