<svg xmlns="http://www.w3.org/2000/svg" xmlns:xlink="http://www.w3.org/1999/xlink" viewBox="0 0 27.59 28.18"><defs><style>.cls-1{fill:none;}.cls-2{clip-path:url(#clip-path);}.cls-3{fill:#fff;}</style><clipPath id="clip-path"><polyline class="cls-1" points="300.09 -616.87 219.59 -616.87 219.59 100.13 300.09 100.13 300.09 -616.87"/></clipPath></defs><title>wireframes</title><g id="Layer_2" data-name="Layer 2"><g class="cls-2"><image width="650" height="650" transform="translate(-175.41 -616.87) scale(1.1)" xlink:href="../../../../../Downloads/EMGN-weird-history-14.jpg"/></g><circle cx="13.7" cy="14.19" r="12.91"/><g id="_4NDyVC.tif" data-name="4NDyVC.tif"><path class="cls-3" d="M12.73,17.65c-.1.29-.17.56-.28.8A3.08,3.08,0,0,1,10.58,20a5.3,5.3,0,0,1-1.76.31,8.87,8.87,0,0,1-2.41-.15,2.94,2.94,0,0,1-1.55-.8A1.2,1.2,0,0,1,4.58,18a1.26,1.26,0,0,1,1-.81,1.56,1.56,0,0,1,1.73.89,8.76,8.76,0,0,1,.53,1.31c.06.15.13.24.3.2a4.23,4.23,0,0,0,.87-.2A1.34,1.34,0,0,0,9.89,18a.89.89,0,0,0-.5-.75,10.57,10.57,0,0,0-1.34-.57,4.71,4.71,0,0,1-1.69-.95,2.31,2.31,0,0,1,.23-3.54,4.39,4.39,0,0,1,2.12-.89,8.54,8.54,0,0,1,2.67,0,3,3,0,0,1,1.25.44,1.34,1.34,0,0,1,.64.9.24.24,0,0,0,0,.08l.05,0,.29-.51a9.68,9.68,0,0,1,4.64-3.93,13.32,13.32,0,0,1,3.62-.94c.15,0,.21,0,.21.18s0,.32,0,.48a.21.21,0,0,1-.2.27,8.27,8.27,0,0,0-1.31.29,6.31,6.31,0,0,0-3.95,3.72l-.29.72,0,.06.21-.14A5,5,0,0,1,20,12.07a3,3,0,0,1,2.61,2.59,4.69,4.69,0,0,1-1.82,4.28,5.77,5.77,0,0,1-3.44,1.36,5.23,5.23,0,0,1-2.76-.46,3.58,3.58,0,0,1-1.81-2S12.76,17.73,12.73,17.65ZM15.66,17a4.09,4.09,0,0,0,.26,1.72,1.19,1.19,0,0,0,1.12.84,1.62,1.62,0,0,0,1.3-.76,5.66,5.66,0,0,0,1-4.24,1.36,1.36,0,0,0-1-1.21,2.18,2.18,0,0,0-2.27.9.25.25,0,0,0,0,.09A11.09,11.09,0,0,0,15.66,17ZM12.9,13.85a4.92,4.92,0,0,1-.81.23,1.53,1.53,0,0,1-1.55-1A9.06,9.06,0,0,1,10.11,12c0-.16-.12-.17-.26-.15a2,2,0,0,0-.92.46,1.17,1.17,0,0,0,.16,1.94,10.73,10.73,0,0,0,1.11.45,4.9,4.9,0,0,1,2,1.11,5.82,5.82,0,0,1,.4.5A8,8,0,0,1,12.9,13.85Z"/></g></g></svg>