<svg xmlns="http://www.w3.org/2000/svg" viewBox="0 0 45 44"><defs><style>.cls-1{fill:#95e1bf;}</style></defs><title>wireframes</title><g id="Layer_2" data-name="Layer 2"><circle cx="21.93" cy="22.21" r="20.07"/><g id="_4NDyVC.tif" data-name="4NDyVC.tif"><path class="cls-1" d="M20.43,27.59A11.16,11.16,0,0,1,20,28.83a4.78,4.78,0,0,1-2.91,2.37,8.77,8.77,0,0,1-2.74.48,13.74,13.74,0,0,1-3.73-.24A4.58,4.58,0,0,1,8.18,30.2a1.9,1.9,0,0,1-.42-2.07,2,2,0,0,1,1.6-1.26,2.43,2.43,0,0,1,2.7,1.39,12.9,12.9,0,0,1,.83,2c.09.24.2.38.47.32a8.55,8.55,0,0,0,1.35-.31A2.1,2.1,0,0,0,16,28.05a1.38,1.38,0,0,0-.78-1.16A17.34,17.34,0,0,0,13.15,26a7.13,7.13,0,0,1-2.63-1.48,3.6,3.6,0,0,1,.35-5.5,6.76,6.76,0,0,1,3.31-1.38,13.43,13.43,0,0,1,4.15,0,5,5,0,0,1,1.94.69,2.07,2.07,0,0,1,1,1.4s0,.08,0,.12,0,0,.07.07c.15-.27.3-.54.46-.8A15.08,15.08,0,0,1,29.05,13a20.6,20.6,0,0,1,5.62-1.46c.24,0,.33.06.33.28s0,.5,0,.75-.06.36-.32.41a15.15,15.15,0,0,0-2,.45,9.84,9.84,0,0,0-6.15,5.79c-.15.37-.3.75-.44,1.12,0,0,0,0,0,.09l.33-.21a7.78,7.78,0,0,1,5.31-1.31,4.59,4.59,0,0,1,4.06,4A7.3,7.3,0,0,1,33,29.59a9,9,0,0,1-5.36,2.12A8.1,8.1,0,0,1,23.37,31a5.56,5.56,0,0,1-2.82-3.13Zm4.56-1a6.29,6.29,0,0,0,.4,2.68,1.83,1.83,0,0,0,1.74,1.29,2.48,2.48,0,0,0,2-1.17,8.71,8.71,0,0,0,1.5-6.6,2.11,2.11,0,0,0-1.54-1.88,3.43,3.43,0,0,0-3.54,1.39.38.38,0,0,0-.05.15A15.94,15.94,0,0,0,25,26.55Zm-4.3-4.87a7.16,7.16,0,0,1-1.26.35A2.36,2.36,0,0,1,17,20.51a12.79,12.79,0,0,1-.67-1.76c-.07-.24-.19-.27-.4-.23a3.17,3.17,0,0,0-1.43.71,1.82,1.82,0,0,0,.25,3c.56.26,1.14.49,1.72.7a7.74,7.74,0,0,1,3.05,1.71,8.08,8.08,0,0,1,.62.79A12.17,12.17,0,0,1,20.69,21.68Z"/></g></g></svg>