<svg xmlns="http://www.w3.org/2000/svg" viewBox="0 0 45 44"><defs><style>.cls-1{fill:#95e1bf;}</style></defs><title>wireframes</title><g id="Layer_2" data-name="Layer 2"><circle cx="22.5" cy="21.58" r="20.07"/><g id="SYeKYw"><path class="cls-1" d="M22,8.45c2.25.1,4.51.1,6.74.32a6.57,6.57,0,0,1,6,6.06c.25,2.92.21,5.88.24,8.82a30.87,30.87,0,0,1-.18,4.41,7,7,0,0,1-7.27,6.44c-3.72.06-7.45.07-11.17,0a7,7,0,0,1-7.31-7.19C9,23.46,9,19.6,9.14,15.75a7,7,0,0,1,7.25-7.12c1.88-.05,3.77,0,5.65,0Zm-10.56,13h0c0,1.91-.07,3.82,0,5.72.14,3.08,1.91,4.87,5,4.93,3.74.09,7.49.08,11.23,0a4.63,4.63,0,0,0,4.91-4.86q.15-5.68,0-11.37c-.07-2.94-1.8-4.77-4.68-4.87q-5.88-.19-11.75,0c-2.88.09-4.55,1.9-4.69,4.8C11.4,17.71,11.48,19.6,11.48,21.48Z"/><path class="cls-1" d="M15.36,21.54A6.7,6.7,0,1,1,22,28.26,6.69,6.69,0,0,1,15.36,21.54Zm2.35,0a4.35,4.35,0,1,0,4.4-4.33A4.36,4.36,0,0,0,17.71,21.55Z"/><path class="cls-1" d="M30.57,14.61a1.57,1.57,0,1,1-3.13,0,1.57,1.57,0,0,1,3.13,0Z"/></g></g></svg>