<svg xmlns="http://www.w3.org/2000/svg" xmlns:xlink="http://www.w3.org/1999/xlink" viewBox="0 0 27.68 28.31"><defs><style>.cls-1{fill:none;}.cls-2{clip-path:url(#clip-path);}.cls-3{fill:#fff;}</style><clipPath id="clip-path"><polyline class="cls-1" points="300.42 -577.98 219.92 -577.98 219.92 139.02 300.42 139.02 300.42 -577.98"/></clipPath></defs><title>wireframes</title><g id="Layer_2" data-name="Layer 2"><g class="cls-2"><image width="650" height="650" transform="translate(-175.08 -577.98) scale(1.1)" xlink:href="../../../../../Downloads/EMGN-weird-history-14.jpg"/></g><circle cx="13.83" cy="13.96" r="12.91"/><g id="SD7PKl"><path class="cls-3" d="M13.68,21.05H10.91A4.31,4.31,0,0,1,6.68,17.2a48.18,48.18,0,0,1,0-6.69A3.92,3.92,0,0,1,9.58,7.14a6.32,6.32,0,0,1,1.8-.27c.74,0,1.49,0,2.23,0a4.55,4.55,0,0,1,4.64,4.45.86.86,0,0,0,.89.91c.26,0,.51,0,.77,0,.51,0,.88.28.89.78a18.52,18.52,0,0,1-.2,4.93,4.48,4.48,0,0,1-4.08,3.13Zm0-3.73v0h.94c.58,0,1.16,0,1.75,0a.69.69,0,0,0,.65-.67,1.22,1.22,0,0,0-.35-.72.89.89,0,0,0-.57-.15H11.35a1.81,1.81,0,0,0-.4,0,.75.75,0,0,0-.48,1.12c.21.4.58.41.95.42Zm-1.26-6.7H11.21a.81.81,0,0,0-.85.75.79.79,0,0,0,.79.82c.85,0,1.71,0,2.56,0a.79.79,0,0,0,.76-.8.78.78,0,0,0-.82-.78Z"/></g></g></svg>