<svg xmlns="http://www.w3.org/2000/svg" viewBox="0 0 45 44"><defs><style>.cls-1{fill:#95e1bf;}.cls-2{fill:none;}</style></defs><title>wireframes</title><g id="Layer_2" data-name="Layer 2"><circle cx="22.07" cy="22.36" r="20.07"/><g id="SD7PKl"><path class="cls-1" d="M21.83,33.39H17.54c-3.29,0-6.43-2.71-6.59-6A76.93,76.93,0,0,1,11,17c.22-2.59,2-4.37,4.47-5.24a10.34,10.34,0,0,1,2.78-.43c1.16-.07,2.32,0,3.48,0A7.09,7.09,0,0,1,29,18.23a1.32,1.32,0,0,0,1.38,1.41c.4,0,.8,0,1.2,0,.8,0,1.36.42,1.37,1.2,0,2.56.37,5.14-.3,7.67a7,7,0,0,1-6.34,4.87Zm0-5.8v0h1.46c.9,0,1.81,0,2.71,0a1.09,1.09,0,0,0,1-1.05,1.78,1.78,0,0,0-.55-1.11,1.32,1.32,0,0,0-.88-.23c-2.47,0-4.93,0-7.4,0a2.64,2.64,0,0,0-.63.06,1.17,1.17,0,0,0-.74,1.75c.33.62.9.64,1.47.65C19.5,27.61,20.68,27.59,21.86,27.59Zm-2-10.42H19c-.32,0-.63,0-.95,0a1.24,1.24,0,0,0-1.32,1.17,1.22,1.22,0,0,0,1.22,1.27c1.33.05,2.66.05,4,0a1.22,1.22,0,1,0-.09-2.44C21.16,17.15,20.53,17.17,19.9,17.17Z"/><path class="cls-2" d="M21.86,27.59c-1.18,0-2.36,0-3.54,0-.57,0-1.14,0-1.47-.65a1.17,1.17,0,0,1,.74-1.75,2.64,2.64,0,0,1,.63-.06c2.47,0,4.93,0,7.4,0a1.32,1.32,0,0,1,.88.23,1.78,1.78,0,0,1,.55,1.11,1.09,1.09,0,0,1-1,1.05c-.9,0-1.81,0-2.71,0H21.86Z"/><path class="cls-2" d="M19.9,17.17c.63,0,1.26,0,1.89,0a1.22,1.22,0,1,1,.09,2.44c-1.32,0-2.65,0-4,0a1.22,1.22,0,0,1-1.22-1.27A1.24,1.24,0,0,1,18,17.17c.32,0,.63,0,.95,0h.95Z"/></g></g></svg>