<svg xmlns="http://www.w3.org/2000/svg" xmlns:xlink="http://www.w3.org/1999/xlink" viewBox="0 0 28.43 27.81"><defs><style>.cls-1{fill:none;}.cls-2{clip-path:url(#clip-path);}.cls-3{fill:#fff;}</style><clipPath id="clip-path"><polyline class="cls-1" points="300.17 -501.18 219.67 -501.18 219.67 215.82 300.17 215.82 300.17 -501.18"/></clipPath></defs><title>wireframes</title><g id="Layer_2" data-name="Layer 2"><g class="cls-2"><image width="650" height="650" transform="translate(-175.33 -501.18) scale(1.1)" xlink:href="../../../../../Downloads/EMGN-weird-history-14.jpg"/></g><circle cx="14.5" cy="13.73" r="12.91"/><g id="SYeKYw"><path class="cls-3" d="M14.2,5.28c1.45.07,2.9.07,4.34.21a4.23,4.23,0,0,1,3.89,3.9c.16,1.88.13,3.78.15,5.67a19.09,19.09,0,0,1-.12,2.83A4.48,4.48,0,0,1,17.79,22c-2.39,0-4.79,0-7.18,0A4.51,4.51,0,0,1,5.9,17.41c-.07-2.47-.07-5,0-7.43A4.52,4.52,0,0,1,10.57,5.4c1.21,0,2.42,0,3.63,0ZM7.41,13.67h0c0,1.22,0,2.45,0,3.67a3,3,0,0,0,3.21,3.18q3.62.07,7.22,0A3,3,0,0,0,21,17.38c.06-2.43.06-4.87,0-7.3a2.94,2.94,0,0,0-3-3.14q-3.78-.12-7.56,0a2.94,2.94,0,0,0-3,3.09C7.36,11.24,7.41,12.46,7.41,13.67Z"/><path class="cls-3" d="M9.91,13.7A4.3,4.3,0,1,1,14.19,18,4.28,4.28,0,0,1,9.91,13.7Zm1.51,0a2.79,2.79,0,1,0,2.83-2.78A2.8,2.8,0,0,0,11.42,13.71Z"/><path class="cls-3" d="M19.69,9.25a1,1,0,1,1-1-1A1,1,0,0,1,19.69,9.25Z"/></g></g></svg>