<svg xmlns="http://www.w3.org/2000/svg" xmlns:xlink="http://www.w3.org/1999/xlink" viewBox="0 0 28.68 27.93"><defs><style>.cls-1{fill:none;}.cls-2{clip-path:url(#clip-path);}.cls-3{fill:#fff;}</style><clipPath id="clip-path"><polyline class="cls-1" points="300.42 -538.95 219.92 -538.95 219.92 178.04 300.42 178.04 300.42 -538.95"/></clipPath></defs><title>wireframes</title><g id="Layer_2" data-name="Layer 2"><g class="cls-2"><image width="650" height="650" transform="translate(-175.08 -538.95) scale(1.1)" xlink:href="../../../../../Downloads/EMGN-weird-history-14.jpg"/></g><circle cx="14.53" cy="13.83" r="12.91"/><g id="qVcN38"><path class="cls-3" d="M6.4,8.12c2,0,4.08-.08,6.11,0A2.13,2.13,0,0,1,14.43,10a2.4,2.4,0,0,1-1.12,2.84,2.27,2.27,0,0,1,1.48,2.09,5.33,5.33,0,0,1-.52,2.18,2.87,2.87,0,0,1-2.74,1.37c-1.68.05-3.37,0-5.13,0Zm2,8.52c1.06,0,2.08.05,3.09,0a1.25,1.25,0,0,0,1.15-1.32c0-.65-.23-1.25-.91-1.31-1.1-.1-2.22,0-3.33,0Zm0-4.57c1.07,0,2.07,0,3.05,0a1,1,0,0,0,1-1.07c0-.63-.26-1.07-.9-1.1-1-.05-2.06,0-3.11,0Z"/><path class="cls-3" d="M23.51,15.17H18A1.78,1.78,0,0,0,19.1,17a2,2,0,0,0,2.13-.39,2.82,2.82,0,0,1,1.22-.37,7.21,7.21,0,0,1,1.05,0,3.06,3.06,0,0,1-1.87,2.18,4.2,4.2,0,0,1-4.29-.45C16,17,15.83,15.49,16,14A3.7,3.7,0,0,1,21,10.67C22.79,11.16,23.8,12.89,23.51,15.17Zm-2.08-1.34a1.49,1.49,0,0,0-1.6-1.63,1.52,1.52,0,0,0-1.7,1.63Z"/><path class="cls-3" d="M17.19,10.05V9.13h5.25v.92Z"/></g></g></svg>