<svg xmlns="http://www.w3.org/2000/svg" viewBox="0 0 45 44"><defs><style>.cls-1{fill:#95e1bf;}</style></defs><title>wireframes</title><g id="Layer_2" data-name="Layer 2"><circle cx="22.16" cy="22.47" r="20.07"/><g id="qVcN38"><path class="cls-1" d="M9.52,13.61c3.17,0,6.35-.13,9.5.05a3.3,3.3,0,0,1,3,2.86,3.74,3.74,0,0,1-1.73,4.42,3.54,3.54,0,0,1,2.3,3.25,8.19,8.19,0,0,1-.81,3.38c-.84,1.67-2.55,2.09-4.26,2.14-2.62.08-5.25,0-8,0ZM12.7,26.85c1.63,0,3.22.08,4.79,0a2,2,0,0,0,1.79-2.06c.06-1-.35-1.95-1.41-2.05-1.71-.15-3.45,0-5.17,0Zm0-7.1c1.67,0,3.21.06,4.75,0a1.51,1.51,0,0,0,1.49-1.67c0-1-.4-1.67-1.41-1.71-1.6-.07-3.2,0-4.83,0Z"/><path class="cls-1" d="M36.12,24.56H27.55a2.75,2.75,0,0,0,1.71,2.81,3.13,3.13,0,0,0,3.32-.6,4.15,4.15,0,0,1,1.89-.57,9.65,9.65,0,0,1,1.63,0,4.76,4.76,0,0,1-2.89,3.4,6.59,6.59,0,0,1-6.68-.71c-2.1-1.53-2.34-3.81-2.06-6.12.5-4.14,3.7-6.23,7.69-5.18C35,18.32,36.58,21,36.12,24.56Zm-3.23-2.08A2.31,2.31,0,0,0,30.4,20a2.35,2.35,0,0,0-2.64,2.53Z"/><path class="cls-1" d="M26.29,16.6V15.16h8.17V16.6Z"/></g></g></svg>